<svg width="49" height="49" viewBox="0 0 49 49" fill="none" xmlns="http://www.w3.org/2000/svg">
<rect width="49" height="49" rx="8" fill="#F7F2F9"/>
<path d="M32.8047 8.37756H28.6193C27.5699 8.31824 26.5199 8.48469 25.5403 8.8657C24.5607 9.24671 23.6742 9.83341 22.9406 10.5862C22.207 11.339 21.6434 12.2404 21.2879 13.2296C20.9323 14.2187 20.7931 15.2726 20.8795 16.3202V19.9891H16.6716C16.497 19.9891 16.3295 20.0585 16.206 20.182C16.0824 20.3055 16.0131 20.473 16.0131 20.6476V25.9543C16.0131 26.1289 16.0824 26.2964 16.206 26.4199C16.3295 26.5435 16.497 26.6128 16.6716 26.6128H20.8795V40.0025C20.8795 40.1771 20.9489 40.3446 21.0724 40.4681C21.1959 40.5916 21.3634 40.661 21.5381 40.661H27.0284C27.2031 40.661 27.3706 40.5916 27.4941 40.4681C27.6176 40.3446 27.687 40.1771 27.687 40.0025V26.6059H32.6071C32.6936 26.6059 32.7792 26.5889 32.8591 26.5558C32.939 26.5227 33.0116 26.4742 33.0728 26.413C33.1339 26.3519 33.1825 26.2793 33.2156 26.1994C33.2487 26.1195 33.2657 26.0338 33.2657 25.9473V20.6407C33.2657 20.466 33.1963 20.2985 33.0728 20.175C32.9493 20.0515 32.7818 19.9821 32.6071 19.9821H27.6852V16.8696C27.6852 15.3774 28.0405 14.6166 29.985 14.6166H32.8047C32.9794 14.6166 33.1469 14.5472 33.2704 14.4237C33.3939 14.3002 33.4633 14.1327 33.4633 13.958V9.04306C33.4642 8.95599 33.4478 8.86961 33.4151 8.78891C33.3824 8.7082 33.3341 8.63478 33.2728 8.57289C33.2116 8.51101 33.1387 8.46187 33.0583 8.42835C32.978 8.39482 32.8918 8.37756 32.8047 8.37756Z" fill="#16192C"/>
</svg>
