<svg width="47" height="48" viewBox="0 0 47 48" fill="none" xmlns="http://www.w3.org/2000/svg">
<g opacity="0.8">
<rect width="47" height="48" rx="8" fill="#F7F2F9"/>
<path d="M39.6318 17.4314C39.6065 16.107 39.3607 14.7967 38.9048 13.5567C38.5016 12.4948 37.8858 11.5305 37.0968 10.7256C36.3078 9.92076 35.3629 9.29295 34.3227 8.88238C33.1083 8.41737 31.8254 8.16632 30.5287 8.13992C28.8545 8.05961 28.3233 8.03998 24.0784 8.03998C19.8336 8.03998 19.2988 8.05961 17.6299 8.13279C16.3331 8.15866 15.0502 8.40973 13.8359 8.87524C12.7907 9.27472 11.844 9.90344 11.0625 10.7171C10.2681 11.5168 9.65337 12.4832 9.26077 13.5495C8.80249 14.7892 8.55371 16.0994 8.52504 17.4242C8.45339 19.134 8.43591 19.6766 8.43591 24.0135C8.43591 28.3505 8.45339 28.893 8.52504 30.5975C8.55087 31.9219 8.7973 33.2322 9.25378 34.4722C9.65631 35.5336 10.2713 36.4976 11.0594 37.3024C11.8475 38.1073 12.7914 38.7354 13.8307 39.1465C15.0451 39.6114 16.328 39.8625 17.6246 39.8889C19.2918 39.9639 19.8248 39.9817 24.0697 39.9817C28.3145 39.9817 28.8475 39.9639 30.5147 39.8889C31.8115 39.8631 33.0945 39.6121 34.3087 39.1465C35.3483 38.7359 36.2925 38.1081 37.0807 37.3031C37.8689 36.4982 38.4836 35.5339 38.8856 34.4722C39.3408 33.2319 39.5866 31.9217 39.6126 30.5975C39.686 28.8948 39.7035 28.3505 39.7035 24.0153C39.7035 19.6801 39.7035 19.1358 39.6248 17.4331L39.6318 17.4314ZM36.8147 30.4726C36.8045 31.4851 36.6224 32.4881 36.2765 33.437C36.0158 34.1264 35.6168 34.7524 35.1052 35.2749C34.5936 35.7974 33.9806 36.2049 33.3056 36.4711C32.3763 36.8238 31.3942 37.0098 30.4029 37.0208C28.7532 37.0958 28.2586 37.1136 24.0854 37.1136C19.9122 37.1136 19.4107 37.0958 17.7679 37.0208C16.7765 37.0106 15.7943 36.8246 14.8652 36.4711C14.1861 36.2161 13.5721 35.808 13.0687 35.2771C12.5509 34.7618 12.152 34.135 11.9013 33.4424C11.5561 32.4933 11.374 31.4904 11.3631 30.4779C11.2897 28.7931 11.2722 28.288 11.2722 24.026C11.2722 19.764 11.2897 19.2518 11.3631 17.5741C11.3731 16.5616 11.5552 15.5585 11.9013 14.6097C12.1489 13.916 12.5482 13.2891 13.0687 12.7767C13.5742 12.2472 14.1892 11.8398 14.8687 11.5845C15.7981 11.2319 16.7801 11.046 17.7714 11.0348C19.4211 10.9598 19.9157 10.942 24.0889 10.942C28.2621 10.942 28.7637 10.9616 30.4064 11.0348C31.3978 11.0452 32.3799 11.2312 33.3091 11.5845C33.9881 11.8389 34.6022 12.2464 35.1056 12.7767C35.6235 13.292 36.0223 13.9188 36.273 14.6114C36.6182 15.5606 36.8003 16.5635 36.8112 17.5759C36.8846 19.2607 36.9021 19.7658 36.9021 24.0278C36.9021 28.2898 36.8829 28.7895 36.8112 30.4743L36.8147 30.4726Z" fill="#16192C"/>
<path d="M24.0776 15.81C22.4877 15.81 20.9335 16.2915 19.6115 17.1936C18.2895 18.0957 17.2592 19.3779 16.6507 20.878C16.0423 22.3782 15.8831 24.029 16.1933 25.6215C16.5035 27.2141 17.2691 28.6769 18.3933 29.8251C19.5176 30.9733 20.95 31.7552 22.5094 32.072C24.0687 32.3887 25.6851 32.2261 27.154 31.6048C28.6229 30.9834 29.8784 29.9311 30.7617 28.581C31.645 27.2309 32.1165 25.6436 32.1165 24.0198C32.1165 21.8425 31.2695 19.7542 29.762 18.2146C28.2544 16.6749 26.2097 15.81 24.0776 15.81V15.81ZM24.0776 29.3384C23.047 29.3384 22.0394 29.0263 21.1824 28.4415C20.3254 27.8566 19.6575 27.0255 19.2631 26.053C18.8687 25.0805 18.7655 24.0104 18.9665 22.978C19.1676 21.9456 19.6639 20.9973 20.3927 20.253C21.1215 19.5086 22.0501 19.0018 23.061 18.7964C24.0719 18.591 25.1197 18.6964 26.0719 19.0993C27.0241 19.5021 27.838 20.1842 28.4107 21.0594C28.9833 21.9347 29.2889 22.9637 29.2889 24.0163C29.2885 25.4277 28.7393 26.7811 27.7621 27.7791C26.7849 28.7771 25.4596 29.3379 24.0776 29.3384V29.3384Z" fill="#16192C"/>
<path d="M34.3125 15.4836C34.3125 15.8624 34.2025 16.2326 33.9964 16.5476C33.7904 16.8625 33.4975 17.1079 33.1549 17.2529C32.8122 17.3978 32.4352 17.4357 32.0715 17.3619C31.7077 17.288 31.3736 17.1056 31.1114 16.8378C30.8491 16.5699 30.6705 16.2287 30.5982 15.8572C30.5258 15.4857 30.563 15.1007 30.7049 14.7508C30.8468 14.4008 31.0872 14.1018 31.3955 13.8913C31.7039 13.6809 32.0664 13.5686 32.4373 13.5686C32.9346 13.5686 33.4116 13.7703 33.7632 14.1295C34.1149 14.4886 34.3125 14.9757 34.3125 15.4836V15.4836Z" fill="#16192C"/>
</g>
</svg>
