<svg width="50" height="49" viewBox="0 0 50 49" fill="none" xmlns="http://www.w3.org/2000/svg">
<rect width="50" height="49" rx="8" fill="#F7F2F9"/>
<path d="M16.2262 19.3226H9.4248V39.3395H16.2262V19.3226Z" fill="#16192C"/>
<path d="M38.552 21.1509C37.8327 20.3898 36.9534 19.7907 35.9749 19.3948C34.9964 18.999 33.9419 18.8158 32.8842 18.8581C32.0858 18.849 31.2904 18.9547 30.5233 19.1717C29.8745 19.3514 29.2661 19.6495 28.7302 20.0504C27.9416 20.6269 27.2734 21.3464 26.7619 22.17V19.3243H19.9835L20.0047 20.2948C20.0189 20.9418 20.0259 22.9348 20.0259 26.2738C20.0259 29.6129 20.0124 33.9692 19.9853 39.3429H26.7672V28.1629C26.7473 27.6089 26.8238 27.0556 26.9936 26.5269C27.2721 25.8494 27.7225 25.2529 28.3022 24.7938C28.9213 24.3188 29.6916 24.0733 30.4774 24.1006C30.9806 24.064 31.4849 24.1554 31.9416 24.3658C32.3982 24.5762 32.7917 24.8985 33.084 25.3016C33.6942 26.3026 33.9849 27.4596 33.9187 28.6239V39.329H40.7007V27.8561C40.8733 25.4354 40.1058 23.0403 38.552 21.1509Z" fill="#16192C"/>
<path d="M12.8697 9.69018C11.85 9.64642 10.8537 9.99822 10.0968 10.6694C9.75068 10.9839 9.47699 11.3672 9.29402 11.7937C9.11105 12.2202 9.023 12.68 9.03576 13.1424C9.02408 13.6008 9.10969 14.0565 9.28717 14.4808C9.46464 14.905 9.73011 15.2884 10.0668 15.6068C10.4291 15.9422 10.8567 16.2027 11.324 16.3727C11.7913 16.5427 12.2887 16.6188 12.7866 16.5964H12.8273C13.8549 16.6413 14.8589 16.2855 15.6196 15.6068C15.964 15.2938 16.2354 14.9115 16.4152 14.4862C16.5949 14.0608 16.6789 13.6025 16.6612 13.1424C16.6682 12.6814 16.5786 12.2239 16.398 11.7982C16.2173 11.3726 15.9493 10.9877 15.6108 10.6676C15.2431 10.3344 14.8113 10.0763 14.3407 9.90847C13.87 9.74064 13.37 9.66643 12.8697 9.69018Z" fill="#16192C"/>
</svg>
