<svg width="49" height="49" viewBox="0 0 49 49" fill="none" xmlns="http://www.w3.org/2000/svg">
<rect width="49" height="49" rx="8" fill="#F7F2F9"/>
<path d="M41.1174 14.3526C39.8861 14.8911 38.581 15.2416 37.2457 15.3924C38.6569 14.57 39.7087 13.2486 40.1936 11.6888C38.8759 12.474 37.4315 13.0235 35.9251 13.3127C35.3072 12.6555 34.5638 12.129 33.7387 11.7643C32.9137 11.3996 32.0239 11.2042 31.122 11.1897C30.2201 11.1751 29.3244 11.3418 28.488 11.6796C27.6517 12.0175 26.8916 12.5198 26.2529 13.1567C25.6175 13.7733 25.1151 14.5135 24.7768 15.3317C24.4385 16.1499 24.2714 17.0287 24.2859 17.914C24.29 18.4322 24.3481 18.9485 24.4592 19.4547C21.7612 19.327 19.1227 18.6175 16.7245 17.375C14.3574 16.1676 12.2689 14.4788 10.5929 12.4167C10.0112 13.4155 9.69603 14.5471 9.67782 15.7029C9.65961 16.8586 9.93893 17.9996 10.489 19.0162C11.0116 19.9806 11.7626 20.8023 12.6761 21.4096C11.6091 21.3721 10.5666 21.0791 9.63629 20.5552V20.6384C9.61485 22.2024 10.1582 23.7216 11.1666 24.9173C12.1428 26.1196 13.5098 26.9414 15.0296 27.2396C14.452 27.3914 13.8573 27.4683 13.2601 27.4684C12.8347 27.4653 12.4101 27.4305 11.9898 27.3644C12.4218 28.6996 13.2599 29.8666 14.3871 30.7026C15.5142 31.5387 16.8742 32.002 18.2773 32.0281C15.9076 33.9181 12.9585 34.933 9.92744 34.9015C9.38562 34.905 8.84404 34.8778 8.3053 34.82C11.3771 36.8176 14.9686 37.8675 18.6326 37.839C20.9231 37.8554 23.1988 37.4713 25.3569 36.7038C27.3174 36.0251 29.1379 34.995 30.7294 33.6641C32.2125 32.3954 33.5053 30.9199 34.5681 29.2829C35.6187 27.6854 36.4291 25.9425 36.9736 24.1097C37.495 22.3574 37.7623 20.5394 37.7673 18.7112C37.7673 18.323 37.7604 18.0342 37.7465 17.8447C39.0638 16.8845 40.2043 15.7029 41.1174 14.3526Z" fill="#16192C"/>
</svg>
